<svg width="512" height="512" viewBox="0 0 512 512" fill="none" xmlns="http://www.w3.org/2000/svg">
  <rect width="512" height="512" rx="64" fill="#8b5cf6"/>
  <!-- Crochet hook -->
  <path d="M256 80 L256 200" stroke="white" stroke-width="12" stroke-linecap="round"/>
  <circle cx="256" cy="68" r="12" fill="white"/>
  
  <!-- Grid pattern -->
  <g opacity="0.7">
    <path d="M128 240 L384 240 M128 280 L384 280 M128 320 L384 320 M128 360 L384 360 M128 400 L384 400" stroke="white" stroke-width="4"/>
    <path d="M160 220 L160 420 M200 220 L200 420 M240 220 L240 420 M280 220 L280 420 M320 220 L320 420 M360 220 L360 420" stroke="white" stroke-width="4"/>
  </g>
  
  <!-- Crochet symbols -->
  <circle cx="180" cy="260" r="8" fill="white"/>
  <circle cx="300" cy="300" r="8" fill="white"/>
  <circle cx="340" cy="260" r="8" fill="white"/>
  <path d="M220 340 L220 380" stroke="white" stroke-width="6" stroke-linecap="round"/>
  <path d="M260 340 L260 380 M260 355 L280 345" stroke="white" stroke-width="6" stroke-linecap="round"/>
  <path d="M320 340 L320 380 M320 350 L340 340 M320 365 L340 355" stroke="white" stroke-width="6" stroke-linecap="round"/>
</svg>