<svg width="192" height="192" viewBox="0 0 192 192" fill="none" xmlns="http://www.w3.org/2000/svg">
  <rect width="192" height="192" rx="24" fill="#8b5cf6"/>
  <!-- Crochet hook -->
  <path d="M96 40 L96 80" stroke="white" stroke-width="4" stroke-linecap="round"/>
  <circle cx="96" cy="36" r="4" fill="white"/>
  
  <!-- Grid pattern -->
  <g opacity="0.7">
    <path d="M48 96 L144 96 M48 112 L144 112 M48 128 L144 128 M48 144 L144 144" stroke="white" stroke-width="2"/>
    <path d="M64 88 L64 152 M80 88 L80 152 M96 88 L96 152 M112 88 L112 152 M128 88 L128 152" stroke="white" stroke-width="2"/>
  </g>
  
  <!-- Crochet symbols -->
  <circle cx="72" cy="104" r="4" fill="white"/>
  <circle cx="120" cy="120" r="4" fill="white"/>
  <path d="M88 136 L88 144" stroke="white" stroke-width="3" stroke-linecap="round"/>
  <path d="M104 136 L104 144 M104 138 L108 136" stroke="white" stroke-width="3" stroke-linecap="round"/>
</svg>